<svg xmlns="http://www.w3.org/2000/svg" xmlns:xlink="http://www.w3.org/1999/xlink" viewBox="0 0 24 30" version="1.1" x="0px" y="0px"><title>edit</title><desc>Created with Sketch.</desc><g stroke="none" stroke-width="1" fill="none" fill-rule="evenodd"><g fill="#000000"><path d="M18.6579807,8.63612969 L17.0009807,10.2931297 L13.7079807,7.00012969 L15.3539807,5.35412969 C15.7849807,4.94512969 16.3029807,4.94512969 16.6169807,5.32112969 L18.6469807,7.35412969 C19.0849807,7.73012969 19.0849807,8.23512969 18.6579807,8.63612969 L18.6579807,8.63612969 Z M7.98598071,18.6951297 L4.63798071,19.3661297 L5.30798071,16.0151297 L7.98598071,18.6951297 Z M9.00198071,18.2961297 L5.70698071,15.0001297 L12.9999807,7.70712969 L16.2919807,11.0001297 L9.00198071,18.2961297 Z M19.3249807,6.62012969 L17.3539807,4.64712969 C16.6829807,3.83912969 15.4959807,3.83912969 14.6559807,4.63812969 L12.6469807,6.64712969 L4.64698071,14.6461297 C4.57898071,14.7141297 4.53698071,14.8021297 4.51398071,14.8951297 C4.51298071,14.8981297 4.51098071,14.9001297 4.50998071,14.9021297 L4.50398071,14.9341297 C4.50098071,14.9511297 4.49398071,14.9681297 4.49398071,14.9861297 L3.50998071,19.9061297 C3.43998071,20.2561297 3.74898071,20.5651297 4.09898071,20.4941297 L9.01198071,19.5091297 C9.03798071,19.5081297 9.06198071,19.4991297 9.08698071,19.4941297 L9.10298071,19.4901297 C9.10398071,19.4901297 9.10498071,19.4891297 9.10598071,19.4891297 C9.19898071,19.4661297 9.28598071,19.4241297 9.35398071,19.3561297 C9.35498071,19.3551297 9.35698071,19.3551297 9.35798071,19.3541297 L17.3479807,11.3581297 C17.3499807,11.3561297 17.3519807,11.3561297 17.3539807,11.3541297 L19.3539807,9.35412969 C20.1949807,8.56312969 20.1959807,7.36412969 19.3249807,6.62012969 L19.3249807,6.62012969 Z"/></g></g><text x="0" y="39" fill="#000000" font-size="5px" font-weight="bold" font-family="'Helvetica Neue', Helvetica, Arial-Unicode, Arial, Sans-serif">Created by Eynav Raphael</text><text x="0" y="44" fill="#000000" font-size="5px" font-weight="bold" font-family="'Helvetica Neue', Helvetica, Arial-Unicode, Arial, Sans-serif">from the Noun Project</text></svg>